# xmcd
#
# Track frame offsets: 
#        150
#        15430
#        28319
#        33608
#        49087
#        68277
#        98052
#        104505
#        120520
#        139548
#        158753
#        178495
#
# Disc length: 2693 seconds
#
# Revision: 1
# Processed by: cddbd v1.4PL0 Copyright (c) Steve Scherf et al.
# Submitted via: ExactAudioCopy v0.90b4
#
DISCID=990a830c
DTITLE=Flávio Guimarães - Navegaita
DYEAR=2002
DGENRE=Blues
TTITLE0=Cãoo Comendo Mariola
TTITLE1=Não Para!
TTITLE2=Pinote
TTITLE3=Maracagroove
TTITLE4=Menina Mulher da Pele Preta
TTITLE5=Balada de Robert Johnson
TTITLE6=A Formiga e a Sauva
TTITLE7=Mãe dos Vícios
TTITLE8=Caba Véi
TTITLE9="S" Dobrado
TTITLE10=Estrela da Noite
TTITLE11=Boomerang
EXTD=YEAR: 2002 ID3G: 0
EXTT0=
EXTT1=
EXTT2=
EXTT3=
EXTT4=
EXTT5=
EXTT6=
EXTT7=
EXTT8=
EXTT9=
EXTT10=
EXTT11=
PLAYORDER=
